<svg xmlns="http://www.w3.org/2000/svg" viewBox="0 0 512 512">
  <defs>
    <style>
      .a {
        fill: #fff;
      }
    </style>
  </defs>
  <title>account</title>
  <path class="a" d="M512,256C512,114.51,397.5,0,256,0S0,114.5,0,256C0,396.23,113.54,512,256,512,397.88,512,512,396.88,512,256ZM256,30c124.62,0,226,101.38,226,226a225,225,0,0,1-38.7,126.52c-101-108.61-273.44-108.81-374.6,0A225,225,0,0,1,30,256C30,131.38,131.38,30,256,30ZM87.41,406.5c89.78-100.7,247.43-100.67,337.17,0C334.51,507.27,177.53,507.3,87.41,406.5Z" transform="translate(0 0)"/>
  <path class="a" d="M256,271a90.1,90.1,0,0,0,90-90V151a90,90,0,0,0-180,0v30A90.11,90.11,0,0,0,256,271ZM196,151a60,60,0,0,1,120,0v30a60,60,0,0,1-120,0Z" transform="translate(0 0)"/>
</svg>
