<svg xmlns="http://www.w3.org/2000/svg" viewBox="0 0 480 480">
  <defs>
    <style>
      .a {
        fill: #fff;
      }
    </style>
  </defs>
  <title>compass</title>
  <g>
    <path class="a" d="M240,0C107.45,0,0,107.45,0,240S107.45,480,240,480,480,372.55,480,240,372.48.15,240,0Zm0,464C116.29,464,16,363.71,16,240S116.29,16,240,16,464,116.29,464,240,363.65,463.86,240,464Z" transform="translate(0 0)"/>
    <path class="a" d="M357.82,122.18a8,8,0,0,0-9.6-1.29L205.4,202.4c-.09.06-.13.15-.22.2a23.71,23.71,0,0,0-2.55,2.56c-.06.09-.15.13-.2.21L120.89,348.2a8,8,0,0,0,10.91,10.91L274.6,277.6c.09-.06.13-.15.22-.2a24.75,24.75,0,0,0,2.56-2.56c.05-.09.14-.13.19-.22l81.54-142.8A8,8,0,0,0,357.82,122.18ZM149.31,330.69l61.81-108.25,46.48,46.44ZM268.88,257.6l-46.4-46.4,108.25-61.81Z" transform="translate(0 0)"/>
  </g>
</svg>
