<svg xmlns="http://www.w3.org/2000/svg" viewBox="0 0 639.38 588.24">
  <defs>
    <style>
      .a {
        fill: #fff;
      }
    </style>
  </defs>
  <title>message</title>
  <g>
    <path class="a" d="M572.45,46H108.88A88,88,0,0,0,21,133.86V417.55a88,88,0,0,0,87.59,87.91V634.19l185-128.73H572.45a88,88,0,0,0,87.9-87.91V133.86A88,88,0,0,0,572.45,46Zm50.44,371.59A50.5,50.5,0,0,1,572.45,468H281.83L146,562.49V468H108.88a50.5,50.5,0,0,1-50.44-50.44V133.86a50.49,50.49,0,0,1,50.44-50.44H572.45a50.49,50.49,0,0,1,50.44,50.44Z" transform="translate(-20.98 -45.96)"/>
    <path class="a" d="M192.11,178.33H489.23v37.46H192.11Z" transform="translate(-20.98 -45.96)"/>
    <path class="a" d="M192.11,258.25H489.23v37.47H192.11Z" transform="translate(-20.98 -45.96)"/>
    <path class="a" d="M192.11,338.17H489.23v37.47H192.11Z" transform="translate(-20.98 -45.96)"/>
  </g>
</svg>
