<svg xmlns="http://www.w3.org/2000/svg" viewBox="0 0 512 512">
  <defs>
    <style>
      .cls-1 {
        fill: #fff;
      }
    </style>
  </defs>
  <title>Ativo 1</title>
  <g id="Camada_2" data-name="Camada 2">
    <g id="Layer_1" data-name="Layer 1">
      <path class="cls-1" d="M255,324.92A69.92,69.92,0,1,1,324.92,255,70,70,0,0,1,255,324.92ZM255,225a30,30,0,1,0,30,30A30,30,0,0,0,255,225ZM133.28,332.77,56.51,256l76.77-76.77L105,151,0,256,105,361ZM361,407l-28.26-28.25L256,455.49l-73.78-73.77L154,410,256,512ZM512,256,410,154l-28.25,28.25L455.49,256l-74.77,74.78L409,359ZM361,105,256,0,153,103l28.25,28.25L256,56.51l76.77,76.77Z"/>
    </g>
  </g>
</svg>
