<svg xmlns="http://www.w3.org/2000/svg" viewBox="0 0 480 480">
  <defs>
    <style>
      .cls-1 {
        fill: #fff;
      }
    </style>
  </defs>
  <title>teste</title>
  <g id="Camada_2" data-name="Camada 2">
    <g id="Camada_1-2" data-name="Camada 1">
      <g>
        <path class="cls-1" d="M240,0C107.45,0,0,107.45,0,240S107.45,480,240,480,480,372.55,480,240,372.48.15,240,0Zm0,464C116.29,464,16,363.71,16,240S116.29,16,240,16,464,116.29,464,240,363.65,463.86,240,464Z"/>
        <path class="cls-1" d="M240,40C129.54,40,40,129.54,40,240s89.54,200,200,200,200-89.54,200-200S350.41,40.13,240,40Zm0,384A184,184,0,1,1,424,240C423.89,341.57,341.57,423.89,240,424Z"/>
        <path class="cls-1" d="M357.82,122.18a8,8,0,0,0-9.6-1.29L205.4,202.4c-.09.06-.13.15-.22.2a23.71,23.71,0,0,0-2.55,2.56c-.06.09-.15.13-.2.22L120.89,348.2a8,8,0,0,0,10.91,10.91L274.6,277.6c.09-.06.13-.15.22-.2a24.75,24.75,0,0,0,2.56-2.56c.05-.09.14-.13.19-.21l81.54-142.81A8,8,0,0,0,357.82,122.18ZM149.31,330.69l61.81-108.25,46.48,46.44ZM268.88,257.6l-46.4-46.4,108.25-61.81Z"/>
        <path class="cls-1" d="M112,232H80a8,8,0,0,0,0,16h32a8,8,0,0,0,0-16Z"/>
        <path class="cls-1" d="M400,232H368a8,8,0,0,0,0,16h32a8,8,0,0,0,0-16Z"/>
        <path class="cls-1" d="M240,120a8,8,0,0,0,8-8V80a8,8,0,0,0-16,0v32A8,8,0,0,0,240,120Z"/>
        <path class="cls-1" d="M240,360a8,8,0,0,0-8,8v32a8,8,0,0,0,16,0V368A8,8,0,0,0,240,360Z"/>
      </g>
    </g>
  </g>
</svg>
